<svg width="555" height="833" viewBox="0 0 555 833" fill="none" xmlns="http://www.w3.org/2000/svg">
<path d="M138.778 833C215.352 833 277.5 770.803 277.5 694.167V555.333H138.778C62.203 555.333 0.0554199 617.531 0.0554199 694.167C0.0554199 770.803 62.203 833 138.778 833Z" fill="#0ACF83"/>
<path d="M0.0554199 416.5C0.0554199 339.864 62.203 277.667 138.778 277.667H277.5V555.333H138.778C62.203 555.333 0.0554199 493.136 0.0554199 416.5Z" fill="#A259FF"/>
<path d="M0.0554199 138.833C0.0554199 62.1973 62.203 0 138.778 0H277.5V277.667H138.778C62.203 277.667 0.0554199 215.469 0.0554199 138.833Z" fill="#F24E1E"/>
<path d="M277.5 0H416.222C492.797 0 554.945 62.1973 554.945 138.833C554.945 215.469 492.797 277.667 416.222 277.667H277.5V0Z" fill="#FF7262"/>
<path d="M554.945 416.5C554.945 493.136 492.797 555.333 416.222 555.333C339.648 555.333 277.5 493.136 277.5 416.5C277.5 339.864 339.648 277.667 416.222 277.667C492.797 277.667 554.945 339.864 554.945 416.5Z" fill="#1ABCFE"/>
</svg>
