<svg width="200" height="178" viewBox="0 0 200 178" fill="none" xmlns="http://www.w3.org/2000/svg">
<g clip-path="url(#clip0)">
<path d="M164.441 57.6748C162.312 56.9444 160.166 56.2681 158.002 55.6461C158.361 54.1887 158.693 52.7249 158.997 51.2548C163.871 27.5971 160.684 8.53854 149.803 2.26471C139.37 -3.75268 122.306 2.52141 105.073 17.5181C103.375 18.9993 101.715 20.5226 100.093 22.088C99.0073 21.0474 97.9027 20.0271 96.779 19.0271C78.718 2.99071 60.6144 -3.76633 49.7442 2.52601C39.321 8.55993 36.2336 26.4776 40.6212 48.8978C41.0577 51.1181 41.5505 53.3262 42.0995 55.5221C39.5379 56.2497 37.064 57.0251 34.6971 57.85C13.523 65.232 0 76.8024 0 88.803C0 101.198 14.5161 113.631 36.5717 121.168C38.3601 121.777 40.1628 122.34 41.9798 122.859C41.3897 125.224 40.866 127.604 40.4087 129.999C36.2256 152.03 39.4926 169.523 49.8884 175.519C60.6259 181.711 78.6471 175.347 96.1957 160.008C97.5827 158.795 98.9738 157.513 100.369 156.161C102.125 157.855 103.927 159.499 105.775 161.094C122.773 175.72 139.561 181.627 149.948 175.614C160.675 169.404 164.161 150.612 159.635 127.748C159.289 126.002 158.89 124.22 158.435 122.402C159.701 122.028 160.941 121.641 162.155 121.241C185.083 113.645 200 101.364 200 88.8031C200 76.7591 186.042 65.1108 164.441 57.6748ZM110.682 23.9638C125.447 11.1133 139.247 6.04001 145.535 9.66636C152.232 13.5291 154.837 29.1046 150.629 49.5308C150.353 50.8614 150.054 52.1867 149.73 53.5068C140.919 51.5099 131.986 50.0986 122.989 49.2821C117.834 41.8769 112.186 34.8276 106.083 28.1824C107.58 26.7383 109.114 25.3321 110.682 23.9638ZM59.0531 99.0545C60.8618 102.548 62.7519 105.998 64.7233 109.403C66.7344 112.877 68.8275 116.3 71.0024 119.675C64.8118 119.003 58.6597 118.014 52.5705 116.711C54.3363 111.009 56.5119 105.082 59.0531 99.0545ZM59.0435 78.9604C56.5554 73.0592 54.4267 67.2572 52.6883 61.6544C58.3947 60.3771 64.4796 59.3336 70.8201 58.5413C68.6977 61.8515 66.6539 65.2102 64.6888 68.6176C62.7268 72.0205 60.845 75.4681 59.0435 78.9604ZM63.585 89.0084C66.2176 83.5291 69.0532 78.1546 72.092 72.8849V72.8866C75.1279 67.6195 78.3604 62.4734 81.7895 57.4482C87.7373 56.9985 93.8361 56.7631 100.001 56.7631C106.193 56.7631 112.3 57.0003 118.246 57.4535C121.638 62.4672 124.85 67.5959 127.882 72.8397C130.93 78.0939 133.804 83.443 136.504 88.8871C133.833 94.3837 130.968 99.78 127.911 105.076H127.91C124.88 110.339 121.682 115.499 118.315 120.557C112.381 120.981 106.249 121.199 100 121.199C93.7767 121.199 87.7223 121.006 81.8921 120.628C78.4396 115.585 75.1815 110.416 72.1177 105.123C69.0705 99.8613 66.2262 94.4898 63.585 89.0084H63.585ZM135.311 109.344C137.323 105.855 139.256 102.323 141.111 98.7474C143.653 104.492 145.895 110.364 147.828 116.341C141.668 117.725 135.441 118.787 129.171 119.521C131.285 116.17 133.332 112.778 135.311 109.344H135.311ZM141.03 78.9665C139.182 75.4593 137.264 71.9902 135.277 68.5592C133.322 65.182 131.295 61.848 129.195 58.5573C135.577 59.3628 141.691 60.4338 147.431 61.7446C145.589 67.5892 143.452 73.3372 141.03 78.9665H141.03ZM100.096 34.2924C104.256 38.8272 108.184 43.5692 111.865 48.5004C103.99 48.1283 96.1108 48.1266 88.227 48.4951C92.113 43.3711 96.093 38.6109 100.096 34.2924ZM54.0247 9.92036C60.7163 6.04706 75.5112 11.5702 91.1054 25.416C92.102 26.3011 93.1031 27.2278 94.106 28.1864C87.9675 34.8304 82.276 41.8739 77.069 49.2705C68.0927 50.0756 59.178 51.4611 50.3807 53.4184C49.8705 51.3762 49.4123 49.3221 49.0061 47.2561V47.257C45.2469 28.0469 47.743 13.5568 54.0247 9.92036ZM44.2723 114.629C42.6144 114.155 40.9686 113.639 39.3351 113.084C30.8654 110.419 22.9583 106.218 16.0087 100.692C14.0176 99.326 12.3279 97.5661 11.0439 95.5212C9.75989 93.4763 8.90892 91.1898 8.54356 88.803C8.54356 81.5211 19.4014 72.2316 37.5103 65.9179C39.7832 65.1289 42.0777 64.407 44.3939 63.752C47.0828 72.3774 50.3392 80.8154 54.1417 89.011C50.2914 97.3237 46.9944 105.882 44.2723 114.629V114.629ZM90.5734 153.574C84.0337 159.58 76.4445 164.331 68.185 167.59H68.1841C66.0064 168.632 63.638 169.217 61.2255 169.308C58.8129 169.399 56.4073 168.993 54.1575 168.118C47.8483 164.48 45.2265 150.433 48.8033 131.593C49.2286 129.366 49.7156 127.153 50.2642 124.953C59.1496 126.861 68.1544 128.165 77.2163 128.854C82.4683 136.293 88.2033 143.379 94.3843 150.066C93.1426 151.266 91.8723 152.436 90.5734 153.574ZM100.332 143.917C96.2824 139.548 92.2436 134.715 88.2986 129.516C92.1276 129.667 96.0281 129.743 100 129.743C104.077 129.743 108.101 129.654 112.073 129.475C108.409 134.486 104.49 139.307 100.332 143.917V143.917ZM152.215 155.804C152.03 158.212 151.354 160.555 150.228 162.691C149.101 164.826 147.549 166.708 145.667 168.22C139.364 171.869 125.884 167.126 111.349 154.617C109.682 153.183 108.006 151.655 106.319 150.032C112.38 143.322 117.981 136.21 123.084 128.745C132.198 127.976 141.248 126.581 150.171 124.57C150.578 126.217 150.939 127.829 151.254 129.408C153.191 138.074 153.517 147.021 152.215 155.805V155.804ZM159.468 113.131H159.467C158.374 113.493 157.252 113.843 156.108 114.182C153.312 105.516 149.928 97.0511 145.981 88.8452C149.779 80.7491 153.03 72.4079 155.714 63.8776C157.76 64.4706 159.746 65.095 161.66 65.754C180.168 72.1243 191.457 81.5447 191.457 88.8028C191.457 96.5346 179.264 106.572 159.468 113.132V113.131Z" fill="#61DAFB"/>
<path d="M100.001 70.9435C103.533 70.9434 106.986 71.9908 109.923 73.9532C112.86 75.9156 115.15 78.7049 116.501 81.9683C117.853 85.2318 118.207 88.8228 117.518 92.2873C116.829 95.7517 115.128 98.9341 112.63 101.432C110.132 103.93 106.95 105.631 103.485 106.32C100.021 107.009 96.4299 106.655 93.1665 105.303C89.903 103.951 87.1137 101.662 85.1513 98.7251C83.1889 95.7881 82.1415 92.335 82.1416 88.8027C82.1416 84.0661 84.0232 79.5236 87.3724 76.1743C90.7217 72.8251 95.2643 70.9435 100.001 70.9435" fill="#61DAFB"/>
</g>
<defs>
<clipPath id="clip0">
<rect width="200" height="177.943" fill="white"/>
</clipPath>
</defs>
</svg>
