<svg width="553" height="626" viewBox="0 0 553 626" fill="none" xmlns="http://www.w3.org/2000/svg">
<path d="M276.48 0L552.961 156.374V469.194L276.48 625.569L0 469.194V156.374L276.48 0Z" fill="white"/>
<path d="M503.595 458.407L285.625 581.707V485.696L421.436 410.974L503.595 458.407ZM518.526 444.906V187.092L438.797 233.168V398.901L518.526 444.906ZM48.5092 458.407L266.479 581.707V485.696L130.596 410.974L48.5092 458.407ZM33.5779 444.906V187.092L113.307 233.168V398.901L33.5779 444.906ZM42.9368 170.376L266.479 43.9334V136.729L123.238 215.524L122.094 216.167L42.9368 170.376ZM509.167 170.376L285.625 43.9334V136.729L428.866 215.452L430.009 216.095L509.167 170.376Z" fill="#8ED6FB"/>
<path d="M266.478 463.837L132.453 390.114V244.17L266.478 321.535V463.837ZM285.625 463.837L419.65 390.186V244.17L285.625 321.535V463.837ZM141.526 227.311L276.052 153.374L410.577 227.311L276.052 304.962L141.526 227.311Z" fill="#1C78C0"/>
</svg>
